<?xml version="1.0" encoding="UTF-8" standalone="no"?>
<svg
   xmlns:dc="http://purl.org/dc/elements/1.1/"
   xmlns:cc="http://creativecommons.org/ns#"
   xmlns:rdf="http://www.w3.org/1999/02/22-rdf-syntax-ns#"
   xmlns:svg="http://www.w3.org/2000/svg"
   xmlns="http://www.w3.org/2000/svg"
   xmlns:sodipodi="http://sodipodi.sourceforge.net/DTD/sodipodi-0.dtd"
   xmlns:inkscape="http://www.inkscape.org/namespaces/inkscape"
   width="4528.955"
   height="2998.568"
   viewBox="0 0 4528.955 2998.568"
   version="1.1"
   id="svg4"
   sodipodi:docname="chanel.svg"
   inkscape:version="1.0 (4035a4fb49, 2020-05-01)">
  <metadata
     id="metadata10">
    <rdf:RDF>
      <cc:Work
         rdf:about="">
        <dc:format>image/svg+xml</dc:format>
        <dc:type
           rdf:resource="http://purl.org/dc/dcmitype/StillImage" />
        <dc:title />
      </cc:Work>
    </rdf:RDF>
  </metadata>
  <defs
     id="defs8" />
  <sodipodi:namedview
     inkscape:document-rotation="0"
     pagecolor="#ffffff"
     bordercolor="#666666"
     borderopacity="1"
     objecttolerance="10"
     gridtolerance="10"
     guidetolerance="10"
     inkscape:pageopacity="0"
     inkscape:pageshadow="2"
     inkscape:window-width="1920"
     inkscape:window-height="1017"
     id="namedview6"
     showgrid="false"
     inkscape:pagecheckerboard="true"
     inkscape:zoom="0.081890305"
     inkscape:cx="1419.0551"
     inkscape:cy="52.35496"
     inkscape:window-x="952"
     inkscape:window-y="1086"
     inkscape:window-maximized="1"
     inkscape:current-layer="svg4" />
  <path
     d="m 305.75007,3011.8956 c -1.925,-0.221 -8.45,-0.897 -14.5,-1.505 -55.227,-5.546 -114.181,-28.13 -160.524,-61.494 -69.48199,-50.023 -118.444995,-122.861 -138.867995,-206.583 -10.853,-44.487 -13.01,-94.33 -6.069,-140.183 18.611,-122.938 99.849995,-228.241 212.544995,-275.507 28.125,-11.795 56.037,-19.254 88.916,-23.761 18.226,-2.497 62.613,-2.511 81,-0.022 38.993,5.275 72.043,15.108 106,31.538 37.364,18.078 63.222,36.692 94.52101,68.044 27.362,27.409 44.258,50.221 63.847,86.208 l 4.167,7.655 -14.768,10.924 c -20.344,15.048 -68.065,49.098 -83.60701,59.654 l -12.84,8.721 -5.281,-11.479 c -6.53,-14.191 -11.179,-22.602 -18.707,-33.845 -30.08,-44.922 -78.047,-77.008 -130.332,-87.181 -27.666,-5.383 -61.726,-4.783 -89,1.566 -28.64,6.668 -59.741,21.625 -83.5,40.159 -9.577,7.471 -27.203,24.95 -34.958,34.669 -41.845,52.436 -57.258,119.238 -42.907,185.961 4.969,23.1 17.83,53.281 31.247,73.327 35.51,53.054 89.94,87.044 151.592,94.664 10.899,1.348 37.153,1.348 48.052,0 54.599,-6.749 105.048,-35.116 139.521,-78.452 10.152,-12.763 17.227,-23.81 25.296,-39.5 3.536,-6.875 6.724,-12.5 7.085,-12.5 0.361,0 25.49801,17.739 55.86001,39.422 l 55.204,39.421 -5.594,10.579 c -11.609,21.956 -31.58,49.555 -50.181,69.347 -31.69,33.72 -62.55701,56.634 -102.71801,76.255 -34.687,16.945 -71.442,27.754 -110.5,32.494 -8.757,1.064 -53.773,2.116 -59.999,1.404 z m 472,-358.92 v -345.5 h 134 v 248 h 350.00003 v -248 h 134 v 691 h -134 v -304 H 911.75007 v 304 h -134 z m 753.38003,284.25 c 14.936,-33.688 83.848,-189.162 153.137,-345.5 l 125.982,-284.249 94,0.01 94,0.011 152.289,341.239 c 83.759,187.682 153.148,343.151 154.201,345.489 l 1.912,4.25 h -160.451 l -30.977,-68.495 -30.976,-68.495 -179.301,0.245 -179.302,0.245 -30.63,68.25 -30.629,68.25 h -160.414 z m 496.443,-215.144 c -0.565,-2.438 -122.302,-274.551 -122.823,-274.544 -0.372,0 -115.987,269.831 -117.834,275.004 -0.205,0.574 46.026,0.934 120.324,0.934 102.633,0 120.607,-0.208 120.333,-1.394 z m 387.177,-69.106 v -345.5 l 94.25,0.021 94.25,0.021 147.5,207.165 147.5,207.165 0.252,-207.186 0.252,-207.186 h 134.996 v 691.018 l -54.167,-0.259 -54.167,-0.259 -187.083,-259.712 c -102.896,-142.842 -187.421,-259.729 -187.833,-259.75 -0.413,-0.021 -0.75,116.962 -0.75,259.962 v 260 h -135 z m 863,0 v -345.5 h 483 v 139 h -348 v 138 h 322 v 139 h -322 v 138 h 398 v 137 h -533 z m 722,0 v -345.5 h 135 v 554 h 376 v 137 h -511 z m -2313.465,-521.239 c -144.237,-6.672 -304.854,-50.467 -434.34,-118.43 -99.406,-52.176 -178.192,-110.562 -260.728,-193.224 -64.645,-64.742 -112.33703,-124.38 -152.70803,-190.955 l -17.673,-29.145 25.072,-13.298 c 48.854,-25.911 271.56403,-139.951 273.31203,-139.951 0.976,0 10.177,12.523 20.446,27.83 116.062,172.987 297.632,285.518 510.111,316.146 37.145,5.354 148.843,4.5 189.292,-1.447 45.009,-6.618 98.995,-18.892 133.285,-30.303 2.231,-0.742 -2.031,-7.666 -11.842,-19.229 -75.949,-89.527 -145.184,-212.405 -184.135,-326.799 -70.457,-206.927 -75.473,-429.04593 -14.4,-637.74493 37.925,-129.599 103.194,-255.391 185.852,-358.189 12.315,-15.315 22.392,-28.828 22.392,-30.027 0,-4.079 -64.524,-21.254 -106.814,-28.432 -65.337,-11.089 -167.621,-12.464 -226.671,-3.047 -99.357,15.846 -200.203,53.057 -279.007,102.949 -87.817,55.6 -161.048,127.051 -219.485,214.153 l -25.804,38.459 -32.845,-17.243 c -18.064,-9.483 -85.17,-44.26 -149.123,-77.279 -63.95303,-33.019 -116.47703,-60.211 -116.72003,-60.425 -1.017,-0.897 39.021,-64.578 55.501,-88.274 50.039,-71.947 138.89303,-167.231 204.53903,-219.341 171.658,-136.26 362.491,-213 577.338,-232.165 39.854,-3.556 138.676,-3.587 177.122,-0.057 136.4,12.522 253.321,45.595 374.116,105.818 l 57.729,28.782 19.34,-11.005 c 31.23,-17.771 86.717,-43.412 128.857,-59.548 118.237,-45.271 237.313,-66.82 368.876,-66.756 91.873,0.045 168.518,9.072 251.721,29.647 187.973,46.482 348.274,135.628 486.39,270.487 74.878,73.112 133.559,147.761 180.938,230.175 l 7.18,12.491 -116.86,60.287 c -64.274,33.159 -131.51,67.97 -149.413,77.357 l -32.551,17.07 -24.605,-37.117 c -121.404,-183.138 -319.99,-302.365 -537.355,-322.618 -64.35,-5.996 -159.903,-0.475 -217.986,12.596 -29.893,6.727 -78.421,20.592 -78.408,22.402 0.01,0.946 7.947,11.455 17.644,23.354 124.563,152.839 202.339,339.146 227.469,544.888 5.998,49.10603 6.798,174.47893 1.423,223.09293 -22.699,205.295 -100.324,394.752 -224.231,547.272 -28.091,34.576 -26.891,32.184 -17.882,35.664 4.254,1.644 24.162,7.151 44.241,12.238 102.046,25.856 211.894,29.51 315.034,10.477 187.592,-34.617 356.545,-145.562 465.211,-305.489 10.105,-14.874 19.232,-28.039 20.28,-29.26 1.048,-1.219 26.097,9.91 55.664,24.731 58.571,29.36 242.036,124.3 244.004,126.267 3.278,3.278 -55.192,90.072 -91.051,135.156 -33.948,42.682 -122.933,131.563 -165.446,165.255 -153.637,121.754 -326.053,196.198 -515.962,222.777 -218.054,30.518 -448.982,-10.353 -636.874,-112.716 l -26.555,-14.466 -32.936,17.426 c -163.19,86.342 -350.376,127.501 -539.969,118.733 z m 609.199,-599.82 c 90.94,-112.57 147.682,-249.121 161.666,-389.052 4.693,-46.964 1.904,-142.6319 -5.405,-185.39593 -20.114,-117.676 -63.151,-218.537 -132.577,-310.706 -13.074,-17.355 -32.111,-40.558 -42.307,-51.558 l -18.537,-20.003 -17.199,18.65 c -22.672,24.583 -60.453,74.737 -79.496,105.528 -96.69,156.35 -128.26,348.43193 -87.313,531.24993 25.767,115.044 85.009,230.936 164.846,322.477 l 18.385,21.08 8.046,-7.615 c 4.424,-4.187 17.875,-19.783 29.891,-34.655 z"
     id="path2"
     style="fill:#ffffff"
     inkscape:export-xdpi="96"
     inkscape:export-ydpi="96" />
  <path
     style="fill:#000000;fill-opacity:0;stroke-width:4.3174"
     d="M -2415.5866,1501.4428 V -1423.5973 H 2266.6362 6948.8591 V 1501.4428 4426.4829 H 2266.6362 -2415.5866 Z m 2174.11519,2508.1504 c 65.46503,-17.0516 111.3481,-43.079 159.371989,-90.4051 30.535907,-30.0923 67.150631,-80.0179 66.906957,-91.2302 -0.09844,-4.5389 -104.976946,-79.3072 -111.245216,-79.3072 -2.43035,0 -10.19779,10.1999 -17.26097,22.6664 -28.84625,50.9138 -90.3691,93.6077 -149.48082,103.7333 -102.3084,17.5248 -205.07782,-54.5063 -233.51076,-163.668 -30.46079,-116.9467 51.63855,-240.4016 173.80234,-261.35 83.73304,-14.3588 177.3737,33.5401 214.43367,109.687 7.52217,15.4559 13.90865,23.6685 16.97236,21.8249 12.65681,-7.615 106.515412,-75.7263 108.274494,-78.5728 2.783128,-4.5031 -35.742997,-63.1683 -57.510562,-87.5738 -38.727102,-43.4196 -101.551952,-81.6813 -163.322022,-99.466 -44.08802,-12.6936 -131.00691,-13.6085 -173.95457,-1.831 -98.69802,27.0654 -181.74395,96.7862 -226.47314,190.1332 -68.04412,142.0046 -39.98481,305.2373 71.57156,416.3621 47.68372,47.4996 117.2363,83.3112 185.32687,95.4228 30.40911,5.4088 104.00174,1.9342 136.09782,-6.4256 z M 261.20284,3854.427 v -153.2677 h 172.64088 172.64083 l 1.13461,152.1884 1.13457,152.1884 67.99909,1.189 67.99909,1.1891 V 3660.2536 3312.593 h -69.07844 -69.07844 v 123.046 123.046 H 433.89894 261.20284 v -123.046 -123.046 h -69.07843 -69.07844 v 347.5509 347.5509 h 69.07844 69.07843 z m 783.81886,85.2644 30.432,-67.9947 h 178.5743 178.5744 l 30.6094,67.9805 30.6094,67.9809 h 80.9513 c 61.9366,0 80.9318,-1.249 80.8684,-5.3782 -0.046,-2.9682 -68.6199,-158.8804 -152.3873,-346.4715 l -152.3044,-341.0748 -97.1187,-1.1579 -97.1186,-1.1584 -150.2022,338.7818 c -82.6112,186.3296 -151.24339,342.7629 -152.51599,347.6295 -2.27207,8.6884 -0.84379,8.8481 79.14101,8.8438 h 81.45488 l 30.4321,-67.9944 z m 857.8393,-188.5578 1.1134,-256.5616 36.483,50.4057 c 20.0651,27.7229 102.3099,141.7183 182.766,253.3231 l 146.2835,202.9179 26.6276,2.7334 c 14.6455,1.5033 40.7135,2.9604 57.9291,3.238 l 31.3012,0.5047 V 3660.1439 3312.593 h -69.0361 -69.0361 l -1.1217,203.4693 -1.1217,203.4692 -144.633,-203.3967 -144.6329,-203.3963 -96.0622,-0.073 -96.0622,-0.072 v 347.5509 347.5509 h 69.0444 69.0447 z m 1259.6362,185.3241 v -71.2371 h -198.6005 -198.6005 v -66.9198 -66.9197 h 159.7439 159.7439 v -71.2372 -71.2371 h -159.7439 -159.7439 v -66.9197 -66.9198 h 172.6961 172.6961 v -71.2371 -71.2372 h -243.9332 -243.9333 v 347.5509 347.5509 h 269.8377 269.8376 z m 699.4192,0 v -71.2371 h -187.807 -187.807 V 3588.9068 3312.593 h -69.0784 -69.0785 v 347.5509 347.5509 h 256.8855 256.8854 z M 1241.2532,3129.185 c 109.9472,-16.9276 204.5691,-46.2234 303.3738,-93.9268 l 63.7581,-30.7826 33.3835,17.6418 c 202.6063,107.0676 456.0443,143.2073 687.878,98.09 159.7551,-31.09 305.0111,-96.3678 439.695,-197.5988 57.1085,-42.9234 160.8284,-147.7094 204.4968,-206.5981 37.9659,-51.1991 72.1153,-103.2296 72.0514,-109.7793 -0.059,-6.0929 -285.67,-152.8012 -297.472,-152.8012 -3.9755,0 -19.1693,17.3537 -34.9662,39.936 -34.1093,48.7615 -119.3598,134.8933 -166.1842,167.9019 -96.1201,67.7595 -196.2639,109.2271 -313.0117,129.6117 -47.7051,8.3295 -177.7479,7.0455 -228.8223,-2.2592 -44.3773,-8.0846 -107.9351,-24.1012 -107.9351,-27.1996 0,-1.0539 11.1562,-15.898 24.7914,-32.9869 121.436,-152.1932 200.8395,-349.2175 221.5544,-549.7423 7.0797,-68.5344 2.919,-198.7443 -8.5419,-267.3315 -30.9325,-185.1094 -101.4003,-346.7243 -213.1731,-488.9036 -11.7507,-14.9476 -20.2948,-28.2479 -18.9862,-29.5562 4.8722,-4.8724 73.4692,-22.8848 107.7779,-28.3008 54.85,-8.6586 186.0421,-7.3451 238.4458,2.3873 98.6112,18.314 210.5554,65.3974 291.4247,122.5725 53.5781,37.8798 137.2722,121.7724 172.8144,173.224 15.3695,22.2493 30.859,44.0248 34.4209,48.39 6.145,7.5308 14.092,3.9824 155.3483,-69.3618 81.88,-42.5143 149.4245,-78.9539 150.0989,-80.977 0.6743,-2.023 -14.0083,-26.8994 -32.6284,-55.2808 -254.3705,-387.7261 -706.7497,-566.90865 -1153.5689,-456.9161 -62.1788,15.3064 -142.6381,45.4981 -206.4893,77.4834 l -53.46,26.78 -65.3878,-31.5334 c -130.0614,-62.7225 -238.0405,-91.5114 -383.4409,-102.2312 -214.44364,-15.8101 -440.98875,40.1119 -625.29931,154.3533 -134.59502,83.4262 -264.31513,212.2315 -347.25104,344.8021 -13.22507,21.1399 -24.04556,39.9708 -24.04556,41.8465 0,1.8756 31.571,19.8326 70.15779,39.9042 38.58678,20.0716 106.10016,55.1857 150.02973,78.0314 65.53394,34.0809 80.64696,40.4323 84.18935,35.3809 2.37457,-3.3861 16.9458,-24.2033 32.38051,-46.2605 114.87524,-164.1637 292.11087,-274.0577 490.02517,-303.8374 49.89786,-7.508 129.72546,-8.4047 185.64826,-2.0855 38.8213,4.3867 122.5669,22.6468 134.5052,29.3279 5.0396,2.8203 1.5184,9.6698 -17.4038,33.853 -83.6325,106.886 -154.4561,249.0834 -188.6952,378.8564 -27.1432,102.8782 -31.6293,140.6479 -31.8353,268.0312 -0.1986,122.744 2.3385,150.3083 22.0115,239.1568 31.8574,143.876 107.6643,301.9636 200.9625,419.0863 l 25.6657,32.2197 -15.5546,5.3851 c -8.5549,2.9619 -40.2559,10.5592 -70.4465,16.8831 -48.6581,10.1921 -64.9436,11.535 -143.3988,11.8245 -99.00844,0.3653 -138.54605,-5.6116 -222.77084,-33.6765 -162.54182,-54.1613 -279.78818,-145.5532 -392.61982,-306.0414 -5.31956,-7.5664 -13.59024,-3.991 -138.74616,59.9792 -73.19914,37.414 -141.27793,72.7501 -151.28618,78.5249 l -18.19682,10.4996 21.77344,35.2975 c 63.34173,102.6849 174.4588,221.2382 281.08923,299.9003 60.29088,44.477 158.00902,97.5888 234.34964,127.3742 76.43537,29.822 191.81743,58.1985 274.37372,67.4784 52.44799,5.8954 208.93369,2.2999 263.14289,-6.0466 z"
     id="path835" />
  <path
     style="fill:#000000;fill-opacity:0;stroke-width:4.3174"
     d="M -2415.5866,1501.4428 V -1423.5973 H 2266.6362 6948.8591 V 1501.4428 4426.4829 H 2266.6362 -2415.5866 Z m 2174.11519,2508.1504 c 65.46503,-17.0516 111.3481,-43.079 159.371989,-90.4051 30.535907,-30.0923 67.150631,-80.0179 66.906957,-91.2302 -0.09844,-4.5389 -104.976946,-79.3072 -111.245216,-79.3072 -2.43035,0 -10.19779,10.1999 -17.26097,22.6664 -28.84625,50.9138 -90.3691,93.6077 -149.48082,103.7333 -102.3084,17.5248 -205.07782,-54.5063 -233.51076,-163.668 -30.46079,-116.9467 51.63855,-240.4016 173.80234,-261.35 83.73304,-14.3588 177.3737,33.5401 214.43367,109.687 7.52217,15.4559 13.90865,23.6685 16.97236,21.8249 12.65681,-7.615 106.515412,-75.7263 108.274494,-78.5728 2.783128,-4.5031 -35.742997,-63.1683 -57.510562,-87.5738 -38.727102,-43.4196 -101.551952,-81.6813 -163.322022,-99.466 -44.08802,-12.6936 -131.00691,-13.6085 -173.95457,-1.831 -98.69802,27.0654 -181.74395,96.7862 -226.47314,190.1332 -68.04412,142.0046 -39.98481,305.2373 71.57156,416.3621 47.68372,47.4996 117.2363,83.3112 185.32687,95.4228 30.40911,5.4088 104.00174,1.9342 136.09782,-6.4256 z M 261.20284,3854.427 v -153.2677 h 172.64088 172.64083 l 1.13461,152.1884 1.13457,152.1884 67.99909,1.189 67.99909,1.1891 V 3660.2536 3312.593 h -69.07844 -69.07844 v 123.046 123.046 H 433.89894 261.20284 v -123.046 -123.046 h -69.07843 -69.07844 v 347.5509 347.5509 h 69.07844 69.07843 z m 783.81886,85.2644 30.432,-67.9947 h 178.5743 178.5744 l 30.6094,67.9805 30.6094,67.9809 h 80.9513 c 61.9366,0 80.9318,-1.249 80.8684,-5.3782 -0.046,-2.9682 -68.6199,-158.8804 -152.3873,-346.4715 l -152.3044,-341.0748 -97.1187,-1.1579 -97.1186,-1.1584 -150.2022,338.7818 c -82.6112,186.3296 -151.24339,342.7629 -152.51599,347.6295 -2.27207,8.6884 -0.84379,8.8481 79.14101,8.8438 h 81.45488 l 30.4321,-67.9944 z m 857.8393,-188.5578 1.1134,-256.5616 36.483,50.4057 c 20.0651,27.7229 102.3099,141.7183 182.766,253.3231 l 146.2835,202.9179 26.6276,2.7334 c 14.6455,1.5033 40.7135,2.9604 57.9291,3.238 l 31.3012,0.5047 V 3660.1439 3312.593 h -69.0361 -69.0361 l -1.1217,203.4693 -1.1217,203.4692 -144.633,-203.3967 -144.6329,-203.3963 -96.0622,-0.073 -96.0622,-0.072 v 347.5509 347.5509 h 69.0444 69.0447 z m 1259.6362,185.3241 v -71.2371 h -198.6005 -198.6005 v -66.9198 -66.9197 h 159.7439 159.7439 v -71.2372 -71.2371 h -159.7439 -159.7439 v -66.9197 -66.9198 h 172.6961 172.6961 v -71.2371 -71.2372 h -243.9332 -243.9333 v 347.5509 347.5509 h 269.8377 269.8376 z m 699.4192,0 v -71.2371 h -187.807 -187.807 V 3588.9068 3312.593 h -69.0784 -69.0785 v 347.5509 347.5509 h 256.8855 256.8854 z M 1241.2532,3129.185 c 109.9472,-16.9276 204.5691,-46.2234 303.3738,-93.9268 l 63.7581,-30.7826 33.3835,17.6418 c 202.6063,107.0676 456.0443,143.2073 687.878,98.09 159.7551,-31.09 305.0111,-96.3678 439.695,-197.5988 57.1085,-42.9234 160.8284,-147.7094 204.4968,-206.5981 37.9659,-51.1991 72.1153,-103.2296 72.0514,-109.7793 -0.059,-6.0929 -285.67,-152.8012 -297.472,-152.8012 -3.9755,0 -19.1693,17.3537 -34.9662,39.936 -34.1093,48.7615 -119.3598,134.8933 -166.1842,167.9019 -96.1201,67.7595 -196.2639,109.2271 -313.0117,129.6117 -47.7051,8.3295 -177.7479,7.0455 -228.8223,-2.2592 -44.3773,-8.0846 -107.9351,-24.1012 -107.9351,-27.1996 0,-1.0539 11.1562,-15.898 24.7914,-32.9869 121.436,-152.1932 200.8395,-349.2175 221.5544,-549.7423 7.0797,-68.5344 2.919,-198.7443 -8.5419,-267.3315 -30.9325,-185.1094 -101.4003,-346.7243 -213.1731,-488.9036 -11.7507,-14.9476 -20.2948,-28.2479 -18.9862,-29.5562 4.8722,-4.8724 73.4692,-22.8848 107.7779,-28.3008 54.85,-8.6586 186.0421,-7.3451 238.4458,2.3873 98.6112,18.314 210.5554,65.3974 291.4247,122.5725 53.5781,37.8798 137.2722,121.7724 172.8144,173.224 15.3695,22.2493 30.859,44.0248 34.4209,48.39 6.145,7.5308 14.092,3.9824 155.3483,-69.3618 81.88,-42.5143 149.4245,-78.9539 150.0989,-80.977 0.6743,-2.023 -14.0083,-26.8994 -32.6284,-55.2808 -254.3705,-387.7261 -706.7497,-566.90865 -1153.5689,-456.9161 -62.1788,15.3064 -142.6381,45.4981 -206.4893,77.4834 l -53.46,26.78 -65.3878,-31.5334 c -130.0614,-62.7225 -238.0405,-91.5114 -383.4409,-102.2312 -214.44364,-15.8101 -440.98875,40.1119 -625.29931,154.3533 -134.59502,83.4262 -264.31513,212.2315 -347.25104,344.8021 -13.22507,21.1399 -24.04556,39.9708 -24.04556,41.8465 0,1.8756 31.571,19.8326 70.15779,39.9042 38.58678,20.0716 106.10016,55.1857 150.02973,78.0314 65.53394,34.0809 80.64696,40.4323 84.18935,35.3809 2.37457,-3.3861 16.9458,-24.2033 32.38051,-46.2605 114.87524,-164.1637 292.11087,-274.0577 490.02517,-303.8374 49.89786,-7.508 129.72546,-8.4047 185.64826,-2.0855 38.8213,4.3867 122.5669,22.6468 134.5052,29.3279 5.0396,2.8203 1.5184,9.6698 -17.4038,33.853 -83.6325,106.886 -154.4561,249.0834 -188.6952,378.8564 -27.1432,102.8782 -31.6293,140.6479 -31.8353,268.0312 -0.1986,122.744 2.3385,150.3083 22.0115,239.1568 31.8574,143.876 107.6643,301.9636 200.9625,419.0863 l 25.6657,32.2197 -15.5546,5.3851 c -8.5549,2.9619 -40.2559,10.5592 -70.4465,16.8831 -48.6581,10.1921 -64.9436,11.535 -143.3988,11.8245 -99.00844,0.3653 -138.54605,-5.6116 -222.77084,-33.6765 -162.54182,-54.1613 -279.78818,-145.5532 -392.61982,-306.0414 -5.31956,-7.5664 -13.59024,-3.991 -138.74616,59.9792 -73.19914,37.414 -141.27793,72.7501 -151.28618,78.5249 l -18.19682,10.4996 21.77344,35.2975 c 63.34173,102.6849 174.4588,221.2382 281.08923,299.9003 60.29088,44.477 158.00902,97.5888 234.34964,127.3742 76.43537,29.822 191.81743,58.1985 274.37372,67.4784 52.44799,5.8954 208.93369,2.2999 263.14289,-6.0466 z"
     id="path837" />
  <path
     style="fill:#000000;fill-opacity:0;stroke-width:4.3174"
     d="M -2415.5866,1501.4428 V -1423.5973 H 2266.6362 6948.8591 V 1501.4428 4426.4829 H 2266.6362 -2415.5866 Z m 2174.11519,2508.1504 c 65.46503,-17.0516 111.3481,-43.079 159.371989,-90.4051 30.535907,-30.0923 67.150631,-80.0179 66.906957,-91.2302 -0.09844,-4.5389 -104.976946,-79.3072 -111.245216,-79.3072 -2.43035,0 -10.19779,10.1999 -17.26097,22.6664 -28.84625,50.9138 -90.3691,93.6077 -149.48082,103.7333 -102.3084,17.5248 -205.07782,-54.5063 -233.51076,-163.668 -30.46079,-116.9467 51.63855,-240.4016 173.80234,-261.35 83.73304,-14.3588 177.3737,33.5401 214.43367,109.687 7.52217,15.4559 13.90865,23.6685 16.97236,21.8249 12.65681,-7.615 106.515412,-75.7263 108.274494,-78.5728 2.783128,-4.5031 -35.742997,-63.1683 -57.510562,-87.5738 -38.727102,-43.4196 -101.551952,-81.6813 -163.322022,-99.466 -44.08802,-12.6936 -131.00691,-13.6085 -173.95457,-1.831 -98.69802,27.0654 -181.74395,96.7862 -226.47314,190.1332 -68.04412,142.0046 -39.98481,305.2373 71.57156,416.3621 47.68372,47.4996 117.2363,83.3112 185.32687,95.4228 30.40911,5.4088 104.00174,1.9342 136.09782,-6.4256 z M 261.20284,3854.427 v -153.2677 h 172.64088 172.64083 l 1.13461,152.1884 1.13457,152.1884 67.99909,1.189 67.99909,1.1891 V 3660.2536 3312.593 h -69.07844 -69.07844 v 123.046 123.046 H 433.89894 261.20284 v -123.046 -123.046 h -69.07843 -69.07844 v 347.5509 347.5509 h 69.07844 69.07843 z m 783.81886,85.2644 30.432,-67.9947 h 178.5743 178.5744 l 30.6094,67.9805 30.6094,67.9809 h 80.9513 c 61.9366,0 80.9318,-1.249 80.8684,-5.3782 -0.046,-2.9682 -68.6199,-158.8804 -152.3873,-346.4715 l -152.3044,-341.0748 -97.1187,-1.1579 -97.1186,-1.1584 -150.2022,338.7818 c -82.6112,186.3296 -151.24339,342.7629 -152.51599,347.6295 -2.27207,8.6884 -0.84379,8.8481 79.14101,8.8438 h 81.45488 l 30.4321,-67.9944 z m 857.8393,-188.5578 1.1134,-256.5616 36.483,50.4057 c 20.0651,27.7229 102.3099,141.7183 182.766,253.3231 l 146.2835,202.9179 26.6276,2.7334 c 14.6455,1.5033 40.7135,2.9604 57.9291,3.238 l 31.3012,0.5047 V 3660.1439 3312.593 h -69.0361 -69.0361 l -1.1217,203.4693 -1.1217,203.4692 -144.633,-203.3967 -144.6329,-203.3963 -96.0622,-0.073 -96.0622,-0.072 v 347.5509 347.5509 h 69.0444 69.0447 z m 1259.6362,185.3241 v -71.2371 h -198.6005 -198.6005 v -66.9198 -66.9197 h 159.7439 159.7439 v -71.2372 -71.2371 h -159.7439 -159.7439 v -66.9197 -66.9198 h 172.6961 172.6961 v -71.2371 -71.2372 h -243.9332 -243.9333 v 347.5509 347.5509 h 269.8377 269.8376 z m 699.4192,0 v -71.2371 h -187.807 -187.807 V 3588.9068 3312.593 h -69.0784 -69.0785 v 347.5509 347.5509 h 256.8855 256.8854 z M 1241.2532,3129.185 c 109.9472,-16.9276 204.5691,-46.2234 303.3738,-93.9268 l 63.7581,-30.7826 33.3835,17.6418 c 202.6063,107.0676 456.0443,143.2073 687.878,98.09 159.7551,-31.09 305.0111,-96.3678 439.695,-197.5988 57.1085,-42.9234 160.8284,-147.7094 204.4968,-206.5981 37.9659,-51.1991 72.1153,-103.2296 72.0514,-109.7793 -0.059,-6.0929 -285.67,-152.8012 -297.472,-152.8012 -3.9755,0 -19.1693,17.3537 -34.9662,39.936 -34.1093,48.7615 -119.3598,134.8933 -166.1842,167.9019 -96.1201,67.7595 -196.2639,109.2271 -313.0117,129.6117 -47.7051,8.3295 -177.7479,7.0455 -228.8223,-2.2592 -44.3773,-8.0846 -107.9351,-24.1012 -107.9351,-27.1996 0,-1.0539 11.1562,-15.898 24.7914,-32.9869 121.436,-152.1932 200.8395,-349.2175 221.5544,-549.7423 7.0797,-68.5344 2.919,-198.7443 -8.5419,-267.3315 -30.9325,-185.1094 -101.4003,-346.7243 -213.1731,-488.9036 -11.7507,-14.9476 -20.2948,-28.2479 -18.9862,-29.5562 4.8722,-4.8724 73.4692,-22.8848 107.7779,-28.3008 54.85,-8.6586 186.0421,-7.3451 238.4458,2.3873 98.6112,18.314 210.5554,65.3974 291.4247,122.5725 53.5781,37.8798 137.2722,121.7724 172.8144,173.224 15.3695,22.2493 30.859,44.0248 34.4209,48.39 6.145,7.5308 14.092,3.9824 155.3483,-69.3618 81.88,-42.5143 149.4245,-78.9539 150.0989,-80.977 0.6743,-2.023 -14.0083,-26.8994 -32.6284,-55.2808 -254.3705,-387.7261 -706.7497,-566.90865 -1153.5689,-456.9161 -62.1788,15.3064 -142.6381,45.4981 -206.4893,77.4834 l -53.46,26.78 -65.3878,-31.5334 c -130.0614,-62.7225 -238.0405,-91.5114 -383.4409,-102.2312 -214.44364,-15.8101 -440.98875,40.1119 -625.29931,154.3533 -134.59502,83.4262 -264.31513,212.2315 -347.25104,344.8021 -13.22507,21.1399 -24.04556,39.9708 -24.04556,41.8465 0,1.8756 31.571,19.8326 70.15779,39.9042 38.58678,20.0716 106.10016,55.1857 150.02973,78.0314 65.53394,34.0809 80.64696,40.4323 84.18935,35.3809 2.37457,-3.3861 16.9458,-24.2033 32.38051,-46.2605 114.87524,-164.1637 292.11087,-274.0577 490.02517,-303.8374 49.89786,-7.508 129.72546,-8.4047 185.64826,-2.0855 38.8213,4.3867 122.5669,22.6468 134.5052,29.3279 5.0396,2.8203 1.5184,9.6698 -17.4038,33.853 -83.6325,106.886 -154.4561,249.0834 -188.6952,378.8564 -27.1432,102.8782 -31.6293,140.6479 -31.8353,268.0312 -0.1986,122.744 2.3385,150.3083 22.0115,239.1568 31.8574,143.876 107.6643,301.9636 200.9625,419.0863 l 25.6657,32.2197 -15.5546,5.3851 c -8.5549,2.9619 -40.2559,10.5592 -70.4465,16.8831 -48.6581,10.1921 -64.9436,11.535 -143.3988,11.8245 -99.00844,0.3653 -138.54605,-5.6116 -222.77084,-33.6765 -162.54182,-54.1613 -279.78818,-145.5532 -392.61982,-306.0414 -5.31956,-7.5664 -13.59024,-3.991 -138.74616,59.9792 -73.19914,37.414 -141.27793,72.7501 -151.28618,78.5249 l -18.19682,10.4996 21.77344,35.2975 c 63.34173,102.6849 174.4588,221.2382 281.08923,299.9003 60.29088,44.477 158.00902,97.5888 234.34964,127.3742 76.43537,29.822 191.81743,58.1985 274.37372,67.4784 52.44799,5.8954 208.93369,2.2999 263.14289,-6.0466 z"
     id="path839" />
</svg>
