<?xml version="1.0" encoding="UTF-8" standalone="no"?>
<svg
   xmlns:dc="http://purl.org/dc/elements/1.1/"
   xmlns:cc="http://creativecommons.org/ns#"
   xmlns:rdf="http://www.w3.org/1999/02/22-rdf-syntax-ns#"
   xmlns:svg="http://www.w3.org/2000/svg"
   xmlns="http://www.w3.org/2000/svg"
   xmlns:sodipodi="http://sodipodi.sourceforge.net/DTD/sodipodi-0.dtd"
   xmlns:inkscape="http://www.inkscape.org/namespaces/inkscape"
   width="2500"
   height="2500"
   viewBox="0 0 192.756 192.756"
   version="1.1"
   id="svg10"
   sodipodi:docname="dior.svg"
   inkscape:version="1.0 (4035a4fb49, 2020-05-01)">
  <metadata
     id="metadata16">
    <rdf:RDF>
      <cc:Work
         rdf:about="">
        <dc:format>image/svg+xml</dc:format>
        <dc:type
           rdf:resource="http://purl.org/dc/dcmitype/StillImage" />
        <dc:title></dc:title>
      </cc:Work>
    </rdf:RDF>
  </metadata>
  <defs
     id="defs14" />
  <sodipodi:namedview
     inkscape:pagecheckerboard="true"
     inkscape:document-rotation="0"
     pagecolor="#ffffff"
     bordercolor="#666666"
     borderopacity="1"
     objecttolerance="10"
     gridtolerance="10"
     guidetolerance="10"
     inkscape:pageopacity="0"
     inkscape:pageshadow="2"
     inkscape:window-width="1920"
     inkscape:window-height="1017"
     id="namedview12"
     showgrid="false"
     inkscape:zoom="0.24041631"
     inkscape:cx="1144.0572"
     inkscape:cy="1384.0487"
     inkscape:window-x="952"
     inkscape:window-y="1086"
     inkscape:window-maximized="1"
     inkscape:current-layer="svg10" />
  <path
     style="clip-rule:evenodd;fill:#ffffff;fill-rule:evenodd"
     id="path4"
     d="M 10.43,61.199 6.888,61.016 5.428,60.724 5.136,60.176 c 0,-0.511 0.365,-0.73 1.096,-0.73 h 36.627 c 17.163,0 29.213,5.222 36.225,15.702 4.017,6.062 6.025,13.256 6.025,21.582 0,4.346 -0.657,8.545 -2.009,12.598 -1.533,4.273 -3.651,8.035 -6.39,11.395 -2.995,3.541 -6.646,6.281 -10.846,8.289 -4.492,2.045 -9.531,3.104 -15.191,3.104 H 3.967 c -0.767,0 -1.132,-0.256 -1.132,-0.693 0,-0.475 0.548,-0.73 1.57,-0.73 l 8.947,-0.547 c 1.388,-0.184 2.374,-0.586 2.849,-1.133 l 0.913,-1.279 c 0.329,-0.875 0.512,-2.189 0.548,-3.979 V 65.837 c 0,-2.264 -1.278,-3.652 -3.761,-4.2 z m 19.72,0.986 -0.256,1.461 v 64.307 c 0,0.73 0.146,1.24 0.438,1.424 l 1.461,0.219 h 4.82 l 11.174,-0.402 c 2.994,-0.328 5.55,-0.803 7.559,-1.461 a 20.545,20.545 0 0 0 5.55,-3.066 c 1.461,-1.205 2.958,-2.922 4.602,-5.113 2.738,-3.578 4.71,-8.143 5.915,-13.73 0.73,-3.65 1.096,-7.193 1.096,-10.589 0,-2.994 -0.438,-6.208 -1.351,-9.677 -1.278,-5.003 -3.214,-9.385 -5.953,-13.11 -5.295,-7.23 -13.986,-10.809 -26,-10.809 h -7.413 c -0.839,-0.075 -1.387,0.108 -1.642,0.546 z m 62.152,69.383 c -0.073,-0.439 0.292,-0.621 1.096,-0.621 l 2.556,-0.074 c 1.388,-0.182 2.228,-0.656 2.556,-1.387 l 0.475,-2.629 V 105.64 c 0,-0.803 -0.293,-1.424 -0.84,-1.789 l -1.899,-0.184 -2.556,0.695 -1.388,-0.074 c -0.183,-0.438 0.365,-0.84 1.643,-1.205 3.031,-0.803 5.698,-1.826 7.961,-3.104 1.387,-0.803 2.373,-1.242 2.811,-1.424 l 1.096,-0.109 c 0.365,0.072 0.549,0.803 0.549,2.117 v 26.73 c 0,1.277 0.291,2.191 0.84,2.738 0.656,0.658 2.191,0.986 4.564,0.986 0.84,0 1.277,0.184 1.352,0.584 0,0.33 -0.256,0.439 -0.695,0.439 H 92.959 c -0.438,0.003 -0.657,-0.181 -0.657,-0.472 z m 86.18,-26.293 c -1.789,1.863 -2.994,4.053 -3.652,6.682 v 15.521 c 0,1.387 0.475,2.373 1.461,2.994 l 2.229,0.4 2.336,0.256 c 0.549,0.074 0.768,0.184 0.768,0.475 l -0.109,0.256 -0.621,0.184 h -19.537 c -0.584,0 -0.912,-0.184 -0.912,-0.475 l 0.547,-0.439 3.287,-0.256 c 1.277,-0.219 2.082,-0.656 2.52,-1.314 l 0.549,-1.643 v -21.91 l -0.367,-1.607 -0.619,-0.365 c -0.184,-0.182 -0.475,-0.291 -0.914,-0.365 -0.547,-0.035 -1.205,0.074 -1.898,0.365 l -1.861,0.512 -1.061,-0.256 c -0.182,-0.256 -0.109,-0.438 0.146,-0.547 l 1.57,-0.658 c 3.578,-1.059 6.463,-2.154 8.473,-3.285 l 2.482,-1.352 1.096,0.072 0.438,0.914 v 8.033 c 2.74,-4.455 4.93,-7.193 6.428,-8.107 0.912,-0.547 1.789,-0.986 2.447,-1.168 l 1.277,-0.109 c 0.803,-0.074 1.717,0.182 2.738,0.84 1.389,0.803 2.119,2.008 2.191,3.541 0.074,1.279 -0.293,2.266 -1.096,3.031 -0.73,0.621 -1.461,0.805 -2.117,0.621 -0.621,-0.109 -1.096,-0.365 -1.424,-0.73 l -1.023,-1.277 c -0.803,-1.17 -1.57,-1.535 -2.482,-1.205 -1.063,0.289 -2.157,1.094 -3.29,2.371 z m -76.32,-30.017 c -1.352,0 -2.447,0.475 -3.359,1.388 -0.986,0.913 -1.461,2.081 -1.389,3.433 -0.072,1.278 0.402,2.374 1.389,3.287 0.912,0.913 2.008,1.387 3.359,1.387 1.277,0 2.41,-0.475 3.322,-1.387 0.912,-0.913 1.424,-2.008 1.424,-3.287 0,-1.352 -0.512,-2.52 -1.424,-3.433 -0.912,-0.913 -2.045,-1.388 -3.322,-1.388 z m 19.354,29.14 c 1.314,-1.752 2.959,-3.213 4.93,-4.381 1.754,-1.023 3.506,-1.68 5.332,-2.01 l 6.756,-0.4 c 2.445,0.109 4.711,0.584 6.756,1.496 4.93,2.191 8.033,6.209 9.201,12.051 1.205,5.916 0.184,10.92 -3.031,14.973 -2.738,3.432 -6.354,5.623 -10.918,6.572 -4.783,1.059 -9.238,0.73 -13.256,-0.912 -5.223,-2.119 -8.398,-6.318 -9.422,-12.453 -0.913,-5.805 0.292,-10.736 3.652,-14.936 z m 21.398,-1.642 c -2.227,-2.482 -5.039,-3.578 -8.436,-3.287 -3.285,0.33 -5.805,2.154 -7.449,5.623 -1.496,3.141 -2.045,6.977 -1.496,11.504 0.4,4.492 1.826,8.07 4.125,10.809 2.447,2.885 5.223,4.09 8.326,3.543 3.25,-0.621 5.625,-2.375 7.195,-5.295 1.533,-2.994 2.08,-6.865 1.715,-11.795 -0.437,-4.93 -1.714,-8.583 -3.98,-11.102 z m -50.868,1.607 v 0.365 l -0.804,-0.512 v 0.182 l 0.073,0.33 h -0.11 v -0.695 h 0.037 l 0.73,0.549 v -0.549 h 0.146 z" />
  <path
     style="clip-rule:evenodd;fill:#ffffff;fill-rule:evenodd"
     id="path6"
     d="m 93.397,104.107 h -0.438 v 0.256 h 0.365 v 0.035 h -0.365 v 0.256 h 0.438 v 0.075 H 92.85 v -0.696 h 0.547 z m 2.009,-0.074 h 0.037 l -0.365,0.695 h -0.11 l -0.292,-0.549 -0.329,0.549 H 94.31 c -0.183,-0.33 -0.328,-0.549 -0.365,-0.695 h 0.183 l 0.219,0.549 0.329,-0.549 h 0.109 l 0.256,0.549 0.292,-0.549 z m 1.022,0.365 0.073,0.331 h -0.182 v -0.256 l -0.365,-0.44 h 0.182 l 0.292,0.365 0.292,-0.365 h 0.147 z m 1.023,-0.218 c 0.072,-0.072 0.256,-0.146 0.438,-0.146 0.184,0 0.293,0.074 0.439,0.146 0.035,0.037 0.109,0.109 0.109,0.219 l -0.109,0.256 c -0.146,0.074 -0.256,0.074 -0.439,0.074 -0.182,0 -0.365,0 -0.438,-0.074 l -0.184,-0.256 c 0.001,-0.11 0.075,-0.182 0.184,-0.219 z m 0.731,0 -0.293,-0.072 -0.291,0.072 c -0.074,0.037 -0.146,0.109 -0.146,0.219 0,0.074 0.072,0.146 0.146,0.184 l 0.291,0.146 c 0.109,0 0.256,-0.074 0.293,-0.146 0.072,-0.037 0.146,-0.109 0.146,-0.184 0,-0.11 -0.074,-0.182 -0.146,-0.219 z m 1.095,-0.073 -0.037,0.256 h 0.109 c 0.182,0 0.293,-0.074 0.293,-0.146 0,-0.037 -0.037,-0.109 -0.221,-0.109 h -0.144 z m 0.182,-0.074 c 0.184,0 0.328,0.074 0.328,0.184 l -0.145,0.146 -0.184,0.035 0.439,0.33 h -0.184 l -0.438,-0.33 H 99.24 l 0.037,0.33 h -0.184 v -0.695 z m 1.826,0 -0.474,0.33 0.474,0.366 h -0.181 l -0.403,-0.331 v -0.035 l -0.074,0.035 0.074,0.331 h -0.183 v -0.696 h 0.183 l -0.074,0.33 h 0.074 l 0.475,-0.33 z" />
</svg>
