<?xml version="1.0" encoding="UTF-8" standalone="no"?>
<svg
   xmlns:dc="http://purl.org/dc/elements/1.1/"
   xmlns:cc="http://creativecommons.org/ns#"
   xmlns:rdf="http://www.w3.org/1999/02/22-rdf-syntax-ns#"
   xmlns:svg="http://www.w3.org/2000/svg"
   xmlns="http://www.w3.org/2000/svg"
   xmlns:sodipodi="http://sodipodi.sourceforge.net/DTD/sodipodi-0.dtd"
   xmlns:inkscape="http://www.inkscape.org/namespaces/inkscape"
   inkscape:version="1.0 (4035a4fb49, 2020-05-01)"
   sodipodi:docname="oakley.svg"
   id="svg8"
   version="1.1"
   viewBox="0 0 192.756 192.756"
   height="2500"
   width="2500">
  <metadata
     id="metadata14">
    <rdf:RDF>
      <cc:Work
         rdf:about="">
        <dc:format>image/svg+xml</dc:format>
        <dc:type
           rdf:resource="http://purl.org/dc/dcmitype/StillImage" />
        <dc:title></dc:title>
      </cc:Work>
    </rdf:RDF>
  </metadata>
  <defs
     id="defs12" />
  <sodipodi:namedview
     inkscape:current-layer="svg8"
     inkscape:window-maximized="0"
     inkscape:window-y="1249"
     inkscape:window-x="1292"
     inkscape:cy="748.12029"
     inkscape:cx="2063.8575"
     inkscape:zoom="0.12020815"
     inkscape:pagecheckerboard="true"
     showgrid="false"
     id="namedview10"
     inkscape:window-height="619"
     inkscape:window-width="1447"
     inkscape:pageshadow="2"
     inkscape:pageopacity="0"
     guidetolerance="10"
     gridtolerance="10"
     objecttolerance="10"
     borderopacity="1"
     bordercolor="#666666"
     pagecolor="#ffffff" />
  <path
     d="m 95.335,68.344 c -47.056,0 -85.367,12.909 -85.367,28.734 0,16.031 38.311,28.941 85.367,28.941 47.055,0 85.159,-12.91 85.159,-28.941 0,-15.825 -38.103,-28.734 -85.159,-28.734 z m 0.208,53.094 c -29.566,0 -53.511,-10.826 -53.511,-24.568 0,-13.534 23.945,-24.568 53.511,-24.568 29.566,0 53.511,11.035 53.511,24.568 0.001,13.741 -23.945,24.568 -53.511,24.568 z m 86.705,0.904 c 1.316,0 2.58,0.094 3.783,0.281 1.211,0.188 2.164,0.459 2.855,0.809 0.688,0.352 1.035,0.719 1.035,1.102 0,0.383 -0.34,0.748 -1.016,1.094 -0.684,0.346 -1.627,0.615 -2.84,0.809 a 24.247,24.247 0 0 1 -3.818,0.291 c -1.336,0 -2.609,-0.098 -3.822,-0.291 -1.211,-0.193 -2.158,-0.463 -2.834,-0.809 -0.678,-0.346 -1.016,-0.711 -1.016,-1.094 0,-0.383 0.344,-0.75 1.035,-1.102 0.691,-0.35 1.641,-0.621 2.848,-0.809 a 24.822,24.822 0 0 1 3.79,-0.281 z m 0.01,0.429 c -1.057,0 -2.068,0.076 -3.035,0.225 -0.967,0.152 -1.73,0.367 -2.289,0.65 -0.559,0.283 -0.838,0.578 -0.838,0.887 0,0.309 0.275,0.602 0.818,0.881 0.545,0.277 1.301,0.496 2.277,0.652 0.975,0.156 1.996,0.234 3.066,0.234 1.074,0 2.096,-0.078 3.072,-0.234 0.969,-0.156 1.729,-0.375 2.277,-0.652 0.545,-0.279 0.82,-0.572 0.82,-0.881 0,-0.309 -0.279,-0.604 -0.836,-0.887 -0.557,-0.283 -1.322,-0.498 -2.295,-0.65 a 20.092,20.092 0 0 0 -3.037,-0.225 z m -3.477,2.936 v -2.326 h 1.654 c 1.549,0 2.418,0.002 2.602,0.006 0.549,0.012 0.975,0.045 1.279,0.094 0.304,0.049 0.557,0.121 0.76,0.223 0.205,0.1 0.307,0.211 0.307,0.334 0,0.166 -0.191,0.311 -0.578,0.43 -0.383,0.121 -0.922,0.193 -1.615,0.223 0.244,0.025 0.436,0.057 0.57,0.086 0.133,0.031 0.318,0.092 0.551,0.18 0.061,0.021 0.258,0.117 0.6,0.283 l 0.961,0.469 h -2.039 l -0.686,-0.377 c -0.457,-0.254 -0.84,-0.414 -1.143,-0.479 -0.295,-0.066 -0.68,-0.1 -1.141,-0.1 h -0.428 v 0.955 h -1.654 z m 1.655,-1.322 h 0.672 c 0.951,0 1.545,-0.01 1.777,-0.031 0.227,-0.021 0.41,-0.057 0.543,-0.109 0.137,-0.053 0.201,-0.113 0.201,-0.18 0,-0.064 -0.064,-0.123 -0.195,-0.172 a 2.044,2.044 0 0 0 -0.557,-0.109 c -0.238,-0.023 -0.83,-0.033 -1.77,-0.033 h -0.672 v 0.634 z"
     id="path4"
     style="clip-rule:evenodd;fill-rule:evenodd;fill:#ffffff" />
</svg>
