<?xml version="1.0" encoding="UTF-8" standalone="no"?>
<svg
   xmlns:dc="http://purl.org/dc/elements/1.1/"
   xmlns:cc="http://creativecommons.org/ns#"
   xmlns:rdf="http://www.w3.org/1999/02/22-rdf-syntax-ns#"
   xmlns:svg="http://www.w3.org/2000/svg"
   xmlns="http://www.w3.org/2000/svg"
   xmlns:sodipodi="http://sodipodi.sourceforge.net/DTD/sodipodi-0.dtd"
   xmlns:inkscape="http://www.inkscape.org/namespaces/inkscape"
   inkscape:version="1.0 (4035a4fb49, 2020-05-01)"
   sodipodi:docname="seiko.svg"
   id="svg10"
   version="1.1"
   viewBox="0 0 192.744 192.744"
   height="2500"
   width="2500">
  <metadata
     id="metadata16">
    <rdf:RDF>
      <cc:Work
         rdf:about="">
        <dc:format>image/svg+xml</dc:format>
        <dc:type
           rdf:resource="http://purl.org/dc/dcmitype/StillImage" />
        <dc:title></dc:title>
      </cc:Work>
    </rdf:RDF>
  </metadata>
  <defs
     id="defs14" />
  <sodipodi:namedview
     inkscape:current-layer="svg10"
     inkscape:window-maximized="0"
     inkscape:window-y="1464"
     inkscape:window-x="1549"
     inkscape:cy="1189.2352"
     inkscape:cx="1998.1699"
     inkscape:zoom="0.060104076"
     inkscape:pagecheckerboard="true"
     showgrid="false"
     id="namedview12"
     inkscape:window-height="480"
     inkscape:window-width="820"
     inkscape:pageshadow="2"
     inkscape:pageopacity="0"
     guidetolerance="10"
     gridtolerance="10"
     objecttolerance="10"
     borderopacity="1"
     bordercolor="#666666"
     pagecolor="#ffffff" />
  <path
     d="m 170.512,78.831 c -10.695,0 -19.365,7.835 -19.365,17.5 0,9.665 8.67,17.5 19.365,17.5 10.697,0 19.367,-7.835 19.367,-17.5 0,-9.665 -8.67,-17.5 -19.367,-17.5 z m 0,30.333 c -7.773,0 -14.076,-5.746 -14.076,-12.833 0,-7.088 6.303,-12.834 14.076,-12.834 7.775,0 14.078,5.746 14.078,12.834 0,7.087 -6.303,12.833 -14.078,12.833 z M 43.204,84.506 h 5.83 v 23.649 h -5.83 v 4.62 h 39.269 v -11.11 h -5.94 v 6.49 H 54.974 v -9.349 h 9.569 v 3.96 h 5.94 v -12.54 h -5.94 v 3.96 h -9.569 v -9.68 h 21.559 v 6.49 h 5.94 V 79.887 H 43.204 Z m 43.502,0 h 5.83 v 23.649 h -5.83 v 4.62 h 17.599 v -4.62 h -5.83 V 84.506 h 5.83 V 79.887 H 86.706 Z"
     id="path4"
     style="clip-rule:evenodd;fill-rule:evenodd;fill:#ffffff" />
  <path
     d="m 133.736,93.306 11.77,-8.8 h 5.279 v -4.619 h -16.719 v 4.619 h 3.411 l -17.27,12.98 v -12.98 h 5.83 v -4.619 h -17.599 v 4.619 h 5.83 v 23.649 h -5.83 v 4.62 h 17.599 v -4.62 h -5.83 v -4.675 l 9.074,-6.82 10.174,11.495 h -5.389 v 4.62 h 17.489 v -4.62 h -4.674 z M 21.327,93.747 c -7.149,0 -13.144,-0.11 -13.144,-5.06 0,-4.729 8.415,-5.169 11.384,-5.169 2.969,0 13.64,1.76 13.64,5.83 v 1.65 h 5.939 v -11.11 h -5.939 v 2.199 c -2.42,-0.99 -7.645,-3.135 -13.584,-3.135 -5.939,0 -16.774,1.375 -16.83,9.845 -0.056,8.635 8.69,9.845 18.424,9.845 5.61,0 12.979,-0.275 12.979,5.005 0,5.279 -8.799,5.829 -11.549,5.829 -2.75,0 -13.31,-0.989 -13.31,-5.939 v -1.87 h -5.94 v 11.109 h 5.94 v -1.869 c 2.2,1.319 7.81,3.079 13.64,3.079 5.83,0 16.664,-0.935 16.664,-10.449 0,-9.57 -11.164,-9.79 -18.314,-9.79 z"
     id="path6"
     style="clip-rule:evenodd;fill-rule:evenodd;fill:#ffffff" />
</svg>
