<?xml version="1.0" encoding="UTF-8" standalone="no"?>
<svg
   xmlns:dc="http://purl.org/dc/elements/1.1/"
   xmlns:cc="http://creativecommons.org/ns#"
   xmlns:rdf="http://www.w3.org/1999/02/22-rdf-syntax-ns#"
   xmlns:svg="http://www.w3.org/2000/svg"
   xmlns="http://www.w3.org/2000/svg"
   xmlns:sodipodi="http://sodipodi.sourceforge.net/DTD/sodipodi-0.dtd"
   xmlns:inkscape="http://www.inkscape.org/namespaces/inkscape"
   width="4528.955"
   height="2998.568"
   viewBox="0 0 4528.955 2998.568"
   version="1.1"
   id="svg4"
   sodipodi:docname="white-chanel.svg"
   inkscape:version="1.0 (4035a4fb49, 2020-05-01)">
  <metadata
     id="metadata10">
    <rdf:RDF>
      <cc:Work
         rdf:about="">
        <dc:format>image/svg+xml</dc:format>
        <dc:type
           rdf:resource="http://purl.org/dc/dcmitype/StillImage" />
        <dc:title />
      </cc:Work>
    </rdf:RDF>
  </metadata>
  <defs
     id="defs8" />
  <sodipodi:namedview
     inkscape:document-rotation="0"
     pagecolor="#ffffff"
     bordercolor="#666666"
     borderopacity="1"
     objecttolerance="10"
     gridtolerance="10"
     guidetolerance="10"
     inkscape:pageopacity="0"
     inkscape:pageshadow="2"
     inkscape:window-width="1920"
     inkscape:window-height="1017"
     id="namedview6"
     showgrid="false"
     inkscape:pagecheckerboard="true"
     inkscape:zoom="0.1866066"
     inkscape:cx="2264.4775"
     inkscape:cy="1598.2863"
     inkscape:window-x="-8"
     inkscape:window-y="-8"
     inkscape:window-maximized="1"
     inkscape:current-layer="svg4" />
  <path
     inkscape:export-ydpi="96"
     inkscape:export-xdpi="96"
     id="rect833"
     style="fill:#1a1a1a;fill-opacity:1;stroke-width:0.990498"
     d="M -8.6347656 -8.6347656 L -8.6347656 3030.8164 L 4550.543 3030.8164 L 4550.543 -8.6347656 L -8.6347656 -8.6347656 z M 2795.375 8.6347656 C 2887.248 8.6797656 2963.8927 17.70625 3047.0957 38.28125 C 3235.0687 84.76325 3395.3703 173.91053 3533.4863 308.76953 C 3608.3643 381.88153 3667.0448 456.52936 3714.4238 538.94336 L 3721.6035 551.43555 L 3604.7441 611.72266 C 3540.4701 644.88166 3473.2331 679.69113 3455.3301 689.07812 L 3422.7793 706.14844 L 3398.1758 669.03125 C 3276.7718 485.89325 3078.1853 366.66706 2860.8203 346.41406 C 2796.4703 340.41806 2700.917 345.93877 2642.834 359.00977 C 2612.941 365.73677 2564.4128 379.60211 2564.4258 381.41211 C 2564.4358 382.35811 2572.3733 392.86662 2582.0703 404.76562 C 2706.6333 557.60462 2784.4091 743.9123 2809.5391 949.6543 C 2815.5371 998.7603 2816.3379 1124.1321 2810.9629 1172.7461 C 2788.2639 1378.0411 2710.6375 1567.4995 2586.7305 1720.0195 C 2558.6395 1754.5955 2559.8406 1752.2036 2568.8496 1755.6836 C 2573.1036 1757.3276 2593.0108 1762.8329 2613.0898 1767.9199 C 2715.1358 1793.7759 2824.983 1797.4314 2928.123 1778.3984 C 3115.715 1743.7814 3284.6699 1632.8352 3393.3359 1472.9082 C 3403.4409 1458.0342 3412.5672 1444.8694 3413.6152 1443.6484 C 3414.6632 1442.4294 3439.7123 1453.5579 3469.2793 1468.3789 C 3527.8503 1497.7389 3711.3152 1592.6795 3713.2832 1594.6465 C 3716.5612 1597.9245 3658.0914 1684.7187 3622.2324 1729.8027 C 3588.2844 1772.4847 3499.2982 1861.3666 3456.7852 1895.0586 C 3303.1482 2016.8126 3130.7332 2091.255 2940.8242 2117.834 C 2722.7702 2148.352 2491.8412 2107.4821 2303.9492 2005.1191 L 2277.3945 1990.6523 L 2244.459 2008.0781 C 2081.269 2094.4201 1894.0832 2135.5805 1704.4902 2126.8125 C 1560.2532 2120.1405 1399.6364 2076.3439 1270.1504 2008.3809 C 1170.7444 1956.2049 1091.9579 1897.8202 1009.4219 1815.1582 C 944.77687 1750.4162 897.08584 1690.7781 856.71484 1624.2031 L 839.04102 1595.0586 L 864.11328 1581.7598 C 912.96728 1555.8488 1135.6778 1441.8086 1137.4258 1441.8086 C 1138.4018 1441.8086 1147.6021 1454.3317 1157.8711 1469.6387 C 1273.9331 1642.6257 1455.5034 1755.1572 1667.9824 1785.7852 C 1705.1274 1791.1392 1816.8244 1790.2849 1857.2734 1784.3379 C 1902.2824 1777.7199 1956.2686 1765.4462 1990.5586 1754.0352 C 1992.7896 1753.2932 1988.5278 1746.3696 1978.7168 1734.8066 C 1902.7678 1645.2796 1833.533 1522.3999 1794.582 1408.0059 C 1724.125 1201.0789 1719.1086 978.96072 1780.1816 770.26172 C 1818.1066 640.66272 1883.3752 514.87027 1966.0332 412.07227 C 1978.3482 396.75727 1988.4258 383.24392 1988.4258 382.04492 C 1988.4258 377.96592 1923.9013 360.79128 1881.6113 353.61328 C 1816.2743 342.52428 1713.9914 341.14941 1654.9414 350.56641 C 1555.5844 366.41241 1454.7376 403.62363 1375.9336 453.51562 C 1288.1166 509.11563 1214.8862 580.56597 1156.4492 667.66797 L 1130.6445 706.12695 L 1097.8008 688.88477 C 1079.7368 679.40177 1012.6307 644.62447 948.67773 611.60547 C 884.72473 578.58647 832.20003 551.39564 831.95703 551.18164 C 830.94003 550.28464 870.97703 486.60225 887.45703 462.90625 C 937.49603 390.95925 1026.3501 295.67641 1091.9961 243.56641 C 1263.6541 107.30641 1454.4889 30.565391 1669.3359 11.400391 C 1709.1899 7.8443902 1808.011 7.8137496 1846.457 11.34375 C 1982.857 23.86575 2099.7773 56.939109 2220.5723 117.16211 L 2278.3027 145.94336 L 2297.6426 134.93945 C 2328.8726 117.16845 2384.358 91.526625 2426.498 75.390625 C 2544.735 30.119625 2663.812 8.5707656 2795.375 8.6347656 z M 2276.5293 570.27734 L 2259.3301 588.92773 C 2236.6581 613.51073 2198.877 663.66408 2179.834 694.45508 C 2083.144 850.80508 2051.5745 1042.8871 2092.5215 1225.7051 C 2118.2885 1340.7491 2177.5302 1456.6406 2257.3672 1548.1816 L 2275.752 1569.2617 L 2283.7988 1561.6465 C 2288.2228 1557.4595 2301.6735 1541.8642 2313.6895 1526.9922 C 2404.6295 1414.4222 2461.3715 1277.8705 2475.3555 1137.9395 C 2480.0485 1090.9755 2477.2582 995.30697 2469.9492 952.54297 C 2449.8352 834.86697 2406.799 734.00689 2337.373 641.83789 C 2324.299 624.48289 2305.2624 601.2793 2295.0664 590.2793 L 2276.5293 570.27734 z M 345.89453 2296.0566 C 361.56791 2296.0521 377.26158 2296.6715 386.45508 2297.916 C 425.44808 2303.191 458.49808 2313.0231 492.45508 2329.4531 C 529.81908 2347.5311 555.67755 2366.146 586.97656 2397.498 C 614.33856 2424.907 631.23327 2447.7181 650.82227 2483.7051 L 654.99023 2491.3613 L 640.22266 2502.2852 C 619.87866 2517.3332 572.15724 2551.3835 556.61523 2561.9395 L 543.77539 2570.6602 L 538.49414 2559.1816 C 531.96414 2544.9906 527.31511 2536.5789 519.78711 2525.3359 C 489.70711 2480.4139 441.74008 2448.3273 389.45508 2438.1543 C 361.78908 2432.7713 327.72908 2433.3717 300.45508 2439.7207 C 271.81508 2446.3887 240.71408 2461.3449 216.95508 2479.8789 C 207.37808 2487.3499 189.75109 2504.8298 181.99609 2514.5488 C 140.15109 2566.9848 124.73884 2633.7868 139.08984 2700.5098 C 144.05884 2723.6098 156.92089 2753.7899 170.33789 2773.8359 C 205.84789 2826.8899 260.27769 2860.88 321.92969 2868.5 C 332.82869 2869.848 359.08147 2869.848 369.98047 2868.5 C 424.57947 2861.751 475.02895 2833.3848 509.50195 2790.0488 C 519.65395 2777.2858 526.72983 2766.2388 534.79883 2750.5488 C 538.33483 2743.6738 541.52181 2738.0488 541.88281 2738.0488 C 542.24381 2738.0488 567.38019 2755.7877 597.74219 2777.4707 L 652.94727 2816.8926 L 647.35352 2827.4707 C 635.74452 2849.4267 615.77287 2877.0264 597.17188 2896.8184 C 565.48187 2930.5384 534.61413 2953.4513 494.45312 2973.0723 C 459.76612 2990.0173 423.01112 3000.8264 383.95312 3005.5664 C 375.19612 3006.6304 330.18108 3007.6827 323.95508 3006.9707 C 322.03008 3006.7497 315.50508 3006.0728 309.45508 3005.4648 C 254.22808 2999.9188 195.27464 2977.3367 148.93164 2943.9727 C 79.449645 2893.9497 30.4855 2821.1107 10.0625 2737.3887 C -0.7905002 2692.9017 -2.9468594 2643.0581 3.9941406 2597.2051 C 22.605141 2474.2671 103.84406 2368.9652 216.53906 2321.6992 C 244.66406 2309.9042 272.57608 2302.4445 305.45508 2297.9375 C 314.56808 2296.689 330.22116 2296.0611 345.89453 2296.0566 z M 795.95508 2302.5508 L 929.95508 2302.5508 L 929.95508 2550.5508 L 1279.9551 2550.5508 L 1279.9551 2302.5508 L 1413.9551 2302.5508 L 1413.9551 2993.5508 L 1279.9551 2993.5508 L 1279.9551 2689.5508 L 929.95508 2689.5508 L 929.95508 2993.5508 L 795.95508 2993.5508 L 795.95508 2648.0508 L 795.95508 2302.5508 z M 2432.9551 2302.5508 L 2527.2051 2302.5723 L 2621.4551 2302.5938 L 2768.9551 2509.7578 L 2916.4551 2716.9219 L 2916.707 2509.7363 L 2916.959 2302.5508 L 3051.9551 2302.5508 L 3051.9551 2993.5684 L 2997.7871 2993.3105 L 2943.6211 2993.0508 L 2756.5371 2733.3379 C 2653.6411 2590.4959 2569.1171 2473.6089 2568.7051 2473.5879 C 2568.2921 2473.5669 2567.9551 2590.5508 2567.9551 2733.5508 L 2567.9551 2993.5508 L 2432.9551 2993.5508 L 2432.9551 2648.0508 L 2432.9551 2302.5508 z M 3295.9551 2302.5508 L 3778.9551 2302.5508 L 3778.9551 2441.5508 L 3430.9551 2441.5508 L 3430.9551 2579.5508 L 3752.9551 2579.5508 L 3752.9551 2718.5508 L 3430.9551 2718.5508 L 3430.9551 2856.5508 L 3828.9551 2856.5508 L 3828.9551 2993.5508 L 3295.9551 2993.5508 L 3295.9551 2648.0508 L 3295.9551 2302.5508 z M 4017.9551 2302.5508 L 4152.9551 2302.5508 L 4152.9551 2856.5508 L 4528.9551 2856.5508 L 4528.9551 2993.5508 L 4017.9551 2993.5508 L 4017.9551 2648.0508 L 4017.9551 2302.5508 z M 1828.4531 2302.5527 L 1922.4531 2302.5625 L 2016.4531 2302.5723 L 2168.7422 2643.8125 C 2252.5012 2831.4945 2321.8904 2986.9628 2322.9434 2989.3008 L 2324.8555 2993.5508 L 2164.4043 2993.5508 L 2133.4277 2925.0566 L 2102.4512 2856.5605 L 1923.1504 2856.8066 L 1743.8496 2857.0508 L 1713.2188 2925.3008 L 1682.5898 2993.5508 L 1522.1758 2993.5508 L 1549.3359 2932.3008 C 1564.2719 2898.6128 1633.1837 2743.1388 1702.4727 2586.8008 L 1828.4531 2302.5527 z M 1922.9551 2442.6133 C 1922.5831 2442.6133 1806.9681 2712.4442 1805.1211 2717.6172 C 1804.9161 2718.1912 1851.1473 2718.5508 1925.4453 2718.5508 C 2028.0783 2718.5508 2046.0513 2718.3423 2045.7773 2717.1562 C 2045.2123 2714.7182 1923.4761 2442.6063 1922.9551 2442.6133 z " />
  <path
     style="fill:#000000;fill-opacity:0;stroke-width:4.3174"
     d="M -2415.5866,1501.4428 V -1423.5973 H 2266.6362 6948.8591 V 1501.4428 4426.4829 H 2266.6362 -2415.5866 Z m 2174.11519,2508.1504 c 65.46503,-17.0516 111.3481,-43.079 159.371989,-90.4051 30.535907,-30.0923 67.150631,-80.0179 66.906957,-91.2302 -0.09844,-4.5389 -104.976946,-79.3072 -111.245216,-79.3072 -2.43035,0 -10.19779,10.1999 -17.26097,22.6664 -28.84625,50.9138 -90.3691,93.6077 -149.48082,103.7333 -102.3084,17.5248 -205.07782,-54.5063 -233.51076,-163.668 -30.46079,-116.9467 51.63855,-240.4016 173.80234,-261.35 83.73304,-14.3588 177.3737,33.5401 214.43367,109.687 7.52217,15.4559 13.90865,23.6685 16.97236,21.8249 12.65681,-7.615 106.515412,-75.7263 108.274494,-78.5728 2.783128,-4.5031 -35.742997,-63.1683 -57.510562,-87.5738 -38.727102,-43.4196 -101.551952,-81.6813 -163.322022,-99.466 -44.08802,-12.6936 -131.00691,-13.6085 -173.95457,-1.831 -98.69802,27.0654 -181.74395,96.7862 -226.47314,190.1332 -68.04412,142.0046 -39.98481,305.2373 71.57156,416.3621 47.68372,47.4996 117.2363,83.3112 185.32687,95.4228 30.40911,5.4088 104.00174,1.9342 136.09782,-6.4256 z M 261.20284,3854.427 v -153.2677 h 172.64088 172.64083 l 1.13461,152.1884 1.13457,152.1884 67.99909,1.189 67.99909,1.1891 V 3660.2536 3312.593 h -69.07844 -69.07844 v 123.046 123.046 H 433.89894 261.20284 v -123.046 -123.046 h -69.07843 -69.07844 v 347.5509 347.5509 h 69.07844 69.07843 z m 783.81886,85.2644 30.432,-67.9947 h 178.5743 178.5744 l 30.6094,67.9805 30.6094,67.9809 h 80.9513 c 61.9366,0 80.9318,-1.249 80.8684,-5.3782 -0.046,-2.9682 -68.6199,-158.8804 -152.3873,-346.4715 l -152.3044,-341.0748 -97.1187,-1.1579 -97.1186,-1.1584 -150.2022,338.7818 c -82.6112,186.3296 -151.24339,342.7629 -152.51599,347.6295 -2.27207,8.6884 -0.84379,8.8481 79.14101,8.8438 h 81.45488 l 30.4321,-67.9944 z m 857.8393,-188.5578 1.1134,-256.5616 36.483,50.4057 c 20.0651,27.7229 102.3099,141.7183 182.766,253.3231 l 146.2835,202.9179 26.6276,2.7334 c 14.6455,1.5033 40.7135,2.9604 57.9291,3.238 l 31.3012,0.5047 V 3660.1439 3312.593 h -69.0361 -69.0361 l -1.1217,203.4693 -1.1217,203.4692 -144.633,-203.3967 -144.6329,-203.3963 -96.0622,-0.073 -96.0622,-0.072 v 347.5509 347.5509 h 69.0444 69.0447 z m 1259.6362,185.3241 v -71.2371 h -198.6005 -198.6005 v -66.9198 -66.9197 h 159.7439 159.7439 v -71.2372 -71.2371 h -159.7439 -159.7439 v -66.9197 -66.9198 h 172.6961 172.6961 v -71.2371 -71.2372 h -243.9332 -243.9333 v 347.5509 347.5509 h 269.8377 269.8376 z m 699.4192,0 v -71.2371 h -187.807 -187.807 V 3588.9068 3312.593 h -69.0784 -69.0785 v 347.5509 347.5509 h 256.8855 256.8854 z M 1241.2532,3129.185 c 109.9472,-16.9276 204.5691,-46.2234 303.3738,-93.9268 l 63.7581,-30.7826 33.3835,17.6418 c 202.6063,107.0676 456.0443,143.2073 687.878,98.09 159.7551,-31.09 305.0111,-96.3678 439.695,-197.5988 57.1085,-42.9234 160.8284,-147.7094 204.4968,-206.5981 37.9659,-51.1991 72.1153,-103.2296 72.0514,-109.7793 -0.059,-6.0929 -285.67,-152.8012 -297.472,-152.8012 -3.9755,0 -19.1693,17.3537 -34.9662,39.936 -34.1093,48.7615 -119.3598,134.8933 -166.1842,167.9019 -96.1201,67.7595 -196.2639,109.2271 -313.0117,129.6117 -47.7051,8.3295 -177.7479,7.0455 -228.8223,-2.2592 -44.3773,-8.0846 -107.9351,-24.1012 -107.9351,-27.1996 0,-1.0539 11.1562,-15.898 24.7914,-32.9869 121.436,-152.1932 200.8395,-349.2175 221.5544,-549.7423 7.0797,-68.5344 2.919,-198.7443 -8.5419,-267.3315 -30.9325,-185.1094 -101.4003,-346.7243 -213.1731,-488.9036 -11.7507,-14.9476 -20.2948,-28.2479 -18.9862,-29.5562 4.8722,-4.8724 73.4692,-22.8848 107.7779,-28.3008 54.85,-8.6586 186.0421,-7.3451 238.4458,2.3873 98.6112,18.314 210.5554,65.3974 291.4247,122.5725 53.5781,37.8798 137.2722,121.7724 172.8144,173.224 15.3695,22.2493 30.859,44.0248 34.4209,48.39 6.145,7.5308 14.092,3.9824 155.3483,-69.3618 81.88,-42.5143 149.4245,-78.9539 150.0989,-80.977 0.6743,-2.023 -14.0083,-26.8994 -32.6284,-55.2808 -254.3705,-387.7261 -706.7497,-566.90865 -1153.5689,-456.9161 -62.1788,15.3064 -142.6381,45.4981 -206.4893,77.4834 l -53.46,26.78 -65.3878,-31.5334 c -130.0614,-62.7225 -238.0405,-91.5114 -383.4409,-102.2312 -214.44364,-15.8101 -440.98875,40.1119 -625.29931,154.3533 -134.59502,83.4262 -264.31513,212.2315 -347.25104,344.8021 -13.22507,21.1399 -24.04556,39.9708 -24.04556,41.8465 0,1.8756 31.571,19.8326 70.15779,39.9042 38.58678,20.0716 106.10016,55.1857 150.02973,78.0314 65.53394,34.0809 80.64696,40.4323 84.18935,35.3809 2.37457,-3.3861 16.9458,-24.2033 32.38051,-46.2605 114.87524,-164.1637 292.11087,-274.0577 490.02517,-303.8374 49.89786,-7.508 129.72546,-8.4047 185.64826,-2.0855 38.8213,4.3867 122.5669,22.6468 134.5052,29.3279 5.0396,2.8203 1.5184,9.6698 -17.4038,33.853 -83.6325,106.886 -154.4561,249.0834 -188.6952,378.8564 -27.1432,102.8782 -31.6293,140.6479 -31.8353,268.0312 -0.1986,122.744 2.3385,150.3083 22.0115,239.1568 31.8574,143.876 107.6643,301.9636 200.9625,419.0863 l 25.6657,32.2197 -15.5546,5.3851 c -8.5549,2.9619 -40.2559,10.5592 -70.4465,16.8831 -48.6581,10.1921 -64.9436,11.535 -143.3988,11.8245 -99.00844,0.3653 -138.54605,-5.6116 -222.77084,-33.6765 -162.54182,-54.1613 -279.78818,-145.5532 -392.61982,-306.0414 -5.31956,-7.5664 -13.59024,-3.991 -138.74616,59.9792 -73.19914,37.414 -141.27793,72.7501 -151.28618,78.5249 l -18.19682,10.4996 21.77344,35.2975 c 63.34173,102.6849 174.4588,221.2382 281.08923,299.9003 60.29088,44.477 158.00902,97.5888 234.34964,127.3742 76.43537,29.822 191.81743,58.1985 274.37372,67.4784 52.44799,5.8954 208.93369,2.2999 263.14289,-6.0466 z"
     id="path835" />
  <path
     style="fill:#000000;fill-opacity:0;stroke-width:4.3174"
     d="M -2415.5866,1501.4428 V -1423.5973 H 2266.6362 6948.8591 V 1501.4428 4426.4829 H 2266.6362 -2415.5866 Z m 2174.11519,2508.1504 c 65.46503,-17.0516 111.3481,-43.079 159.371989,-90.4051 30.535907,-30.0923 67.150631,-80.0179 66.906957,-91.2302 -0.09844,-4.5389 -104.976946,-79.3072 -111.245216,-79.3072 -2.43035,0 -10.19779,10.1999 -17.26097,22.6664 -28.84625,50.9138 -90.3691,93.6077 -149.48082,103.7333 -102.3084,17.5248 -205.07782,-54.5063 -233.51076,-163.668 -30.46079,-116.9467 51.63855,-240.4016 173.80234,-261.35 83.73304,-14.3588 177.3737,33.5401 214.43367,109.687 7.52217,15.4559 13.90865,23.6685 16.97236,21.8249 12.65681,-7.615 106.515412,-75.7263 108.274494,-78.5728 2.783128,-4.5031 -35.742997,-63.1683 -57.510562,-87.5738 -38.727102,-43.4196 -101.551952,-81.6813 -163.322022,-99.466 -44.08802,-12.6936 -131.00691,-13.6085 -173.95457,-1.831 -98.69802,27.0654 -181.74395,96.7862 -226.47314,190.1332 -68.04412,142.0046 -39.98481,305.2373 71.57156,416.3621 47.68372,47.4996 117.2363,83.3112 185.32687,95.4228 30.40911,5.4088 104.00174,1.9342 136.09782,-6.4256 z M 261.20284,3854.427 v -153.2677 h 172.64088 172.64083 l 1.13461,152.1884 1.13457,152.1884 67.99909,1.189 67.99909,1.1891 V 3660.2536 3312.593 h -69.07844 -69.07844 v 123.046 123.046 H 433.89894 261.20284 v -123.046 -123.046 h -69.07843 -69.07844 v 347.5509 347.5509 h 69.07844 69.07843 z m 783.81886,85.2644 30.432,-67.9947 h 178.5743 178.5744 l 30.6094,67.9805 30.6094,67.9809 h 80.9513 c 61.9366,0 80.9318,-1.249 80.8684,-5.3782 -0.046,-2.9682 -68.6199,-158.8804 -152.3873,-346.4715 l -152.3044,-341.0748 -97.1187,-1.1579 -97.1186,-1.1584 -150.2022,338.7818 c -82.6112,186.3296 -151.24339,342.7629 -152.51599,347.6295 -2.27207,8.6884 -0.84379,8.8481 79.14101,8.8438 h 81.45488 l 30.4321,-67.9944 z m 857.8393,-188.5578 1.1134,-256.5616 36.483,50.4057 c 20.0651,27.7229 102.3099,141.7183 182.766,253.3231 l 146.2835,202.9179 26.6276,2.7334 c 14.6455,1.5033 40.7135,2.9604 57.9291,3.238 l 31.3012,0.5047 V 3660.1439 3312.593 h -69.0361 -69.0361 l -1.1217,203.4693 -1.1217,203.4692 -144.633,-203.3967 -144.6329,-203.3963 -96.0622,-0.073 -96.0622,-0.072 v 347.5509 347.5509 h 69.0444 69.0447 z m 1259.6362,185.3241 v -71.2371 h -198.6005 -198.6005 v -66.9198 -66.9197 h 159.7439 159.7439 v -71.2372 -71.2371 h -159.7439 -159.7439 v -66.9197 -66.9198 h 172.6961 172.6961 v -71.2371 -71.2372 h -243.9332 -243.9333 v 347.5509 347.5509 h 269.8377 269.8376 z m 699.4192,0 v -71.2371 h -187.807 -187.807 V 3588.9068 3312.593 h -69.0784 -69.0785 v 347.5509 347.5509 h 256.8855 256.8854 z M 1241.2532,3129.185 c 109.9472,-16.9276 204.5691,-46.2234 303.3738,-93.9268 l 63.7581,-30.7826 33.3835,17.6418 c 202.6063,107.0676 456.0443,143.2073 687.878,98.09 159.7551,-31.09 305.0111,-96.3678 439.695,-197.5988 57.1085,-42.9234 160.8284,-147.7094 204.4968,-206.5981 37.9659,-51.1991 72.1153,-103.2296 72.0514,-109.7793 -0.059,-6.0929 -285.67,-152.8012 -297.472,-152.8012 -3.9755,0 -19.1693,17.3537 -34.9662,39.936 -34.1093,48.7615 -119.3598,134.8933 -166.1842,167.9019 -96.1201,67.7595 -196.2639,109.2271 -313.0117,129.6117 -47.7051,8.3295 -177.7479,7.0455 -228.8223,-2.2592 -44.3773,-8.0846 -107.9351,-24.1012 -107.9351,-27.1996 0,-1.0539 11.1562,-15.898 24.7914,-32.9869 121.436,-152.1932 200.8395,-349.2175 221.5544,-549.7423 7.0797,-68.5344 2.919,-198.7443 -8.5419,-267.3315 -30.9325,-185.1094 -101.4003,-346.7243 -213.1731,-488.9036 -11.7507,-14.9476 -20.2948,-28.2479 -18.9862,-29.5562 4.8722,-4.8724 73.4692,-22.8848 107.7779,-28.3008 54.85,-8.6586 186.0421,-7.3451 238.4458,2.3873 98.6112,18.314 210.5554,65.3974 291.4247,122.5725 53.5781,37.8798 137.2722,121.7724 172.8144,173.224 15.3695,22.2493 30.859,44.0248 34.4209,48.39 6.145,7.5308 14.092,3.9824 155.3483,-69.3618 81.88,-42.5143 149.4245,-78.9539 150.0989,-80.977 0.6743,-2.023 -14.0083,-26.8994 -32.6284,-55.2808 -254.3705,-387.7261 -706.7497,-566.90865 -1153.5689,-456.9161 -62.1788,15.3064 -142.6381,45.4981 -206.4893,77.4834 l -53.46,26.78 -65.3878,-31.5334 c -130.0614,-62.7225 -238.0405,-91.5114 -383.4409,-102.2312 -214.44364,-15.8101 -440.98875,40.1119 -625.29931,154.3533 -134.59502,83.4262 -264.31513,212.2315 -347.25104,344.8021 -13.22507,21.1399 -24.04556,39.9708 -24.04556,41.8465 0,1.8756 31.571,19.8326 70.15779,39.9042 38.58678,20.0716 106.10016,55.1857 150.02973,78.0314 65.53394,34.0809 80.64696,40.4323 84.18935,35.3809 2.37457,-3.3861 16.9458,-24.2033 32.38051,-46.2605 114.87524,-164.1637 292.11087,-274.0577 490.02517,-303.8374 49.89786,-7.508 129.72546,-8.4047 185.64826,-2.0855 38.8213,4.3867 122.5669,22.6468 134.5052,29.3279 5.0396,2.8203 1.5184,9.6698 -17.4038,33.853 -83.6325,106.886 -154.4561,249.0834 -188.6952,378.8564 -27.1432,102.8782 -31.6293,140.6479 -31.8353,268.0312 -0.1986,122.744 2.3385,150.3083 22.0115,239.1568 31.8574,143.876 107.6643,301.9636 200.9625,419.0863 l 25.6657,32.2197 -15.5546,5.3851 c -8.5549,2.9619 -40.2559,10.5592 -70.4465,16.8831 -48.6581,10.1921 -64.9436,11.535 -143.3988,11.8245 -99.00844,0.3653 -138.54605,-5.6116 -222.77084,-33.6765 -162.54182,-54.1613 -279.78818,-145.5532 -392.61982,-306.0414 -5.31956,-7.5664 -13.59024,-3.991 -138.74616,59.9792 -73.19914,37.414 -141.27793,72.7501 -151.28618,78.5249 l -18.19682,10.4996 21.77344,35.2975 c 63.34173,102.6849 174.4588,221.2382 281.08923,299.9003 60.29088,44.477 158.00902,97.5888 234.34964,127.3742 76.43537,29.822 191.81743,58.1985 274.37372,67.4784 52.44799,5.8954 208.93369,2.2999 263.14289,-6.0466 z"
     id="path837" />
  <path
     style="fill:#000000;fill-opacity:0;stroke-width:4.3174"
     d="M -2415.5866,1501.4428 V -1423.5973 H 2266.6362 6948.8591 V 1501.4428 4426.4829 H 2266.6362 -2415.5866 Z m 2174.11519,2508.1504 c 65.46503,-17.0516 111.3481,-43.079 159.371989,-90.4051 30.535907,-30.0923 67.150631,-80.0179 66.906957,-91.2302 -0.09844,-4.5389 -104.976946,-79.3072 -111.245216,-79.3072 -2.43035,0 -10.19779,10.1999 -17.26097,22.6664 -28.84625,50.9138 -90.3691,93.6077 -149.48082,103.7333 -102.3084,17.5248 -205.07782,-54.5063 -233.51076,-163.668 -30.46079,-116.9467 51.63855,-240.4016 173.80234,-261.35 83.73304,-14.3588 177.3737,33.5401 214.43367,109.687 7.52217,15.4559 13.90865,23.6685 16.97236,21.8249 12.65681,-7.615 106.515412,-75.7263 108.274494,-78.5728 2.783128,-4.5031 -35.742997,-63.1683 -57.510562,-87.5738 -38.727102,-43.4196 -101.551952,-81.6813 -163.322022,-99.466 -44.08802,-12.6936 -131.00691,-13.6085 -173.95457,-1.831 -98.69802,27.0654 -181.74395,96.7862 -226.47314,190.1332 -68.04412,142.0046 -39.98481,305.2373 71.57156,416.3621 47.68372,47.4996 117.2363,83.3112 185.32687,95.4228 30.40911,5.4088 104.00174,1.9342 136.09782,-6.4256 z M 261.20284,3854.427 v -153.2677 h 172.64088 172.64083 l 1.13461,152.1884 1.13457,152.1884 67.99909,1.189 67.99909,1.1891 V 3660.2536 3312.593 h -69.07844 -69.07844 v 123.046 123.046 H 433.89894 261.20284 v -123.046 -123.046 h -69.07843 -69.07844 v 347.5509 347.5509 h 69.07844 69.07843 z m 783.81886,85.2644 30.432,-67.9947 h 178.5743 178.5744 l 30.6094,67.9805 30.6094,67.9809 h 80.9513 c 61.9366,0 80.9318,-1.249 80.8684,-5.3782 -0.046,-2.9682 -68.6199,-158.8804 -152.3873,-346.4715 l -152.3044,-341.0748 -97.1187,-1.1579 -97.1186,-1.1584 -150.2022,338.7818 c -82.6112,186.3296 -151.24339,342.7629 -152.51599,347.6295 -2.27207,8.6884 -0.84379,8.8481 79.14101,8.8438 h 81.45488 l 30.4321,-67.9944 z m 857.8393,-188.5578 1.1134,-256.5616 36.483,50.4057 c 20.0651,27.7229 102.3099,141.7183 182.766,253.3231 l 146.2835,202.9179 26.6276,2.7334 c 14.6455,1.5033 40.7135,2.9604 57.9291,3.238 l 31.3012,0.5047 V 3660.1439 3312.593 h -69.0361 -69.0361 l -1.1217,203.4693 -1.1217,203.4692 -144.633,-203.3967 -144.6329,-203.3963 -96.0622,-0.073 -96.0622,-0.072 v 347.5509 347.5509 h 69.0444 69.0447 z m 1259.6362,185.3241 v -71.2371 h -198.6005 -198.6005 v -66.9198 -66.9197 h 159.7439 159.7439 v -71.2372 -71.2371 h -159.7439 -159.7439 v -66.9197 -66.9198 h 172.6961 172.6961 v -71.2371 -71.2372 h -243.9332 -243.9333 v 347.5509 347.5509 h 269.8377 269.8376 z m 699.4192,0 v -71.2371 h -187.807 -187.807 V 3588.9068 3312.593 h -69.0784 -69.0785 v 347.5509 347.5509 h 256.8855 256.8854 z M 1241.2532,3129.185 c 109.9472,-16.9276 204.5691,-46.2234 303.3738,-93.9268 l 63.7581,-30.7826 33.3835,17.6418 c 202.6063,107.0676 456.0443,143.2073 687.878,98.09 159.7551,-31.09 305.0111,-96.3678 439.695,-197.5988 57.1085,-42.9234 160.8284,-147.7094 204.4968,-206.5981 37.9659,-51.1991 72.1153,-103.2296 72.0514,-109.7793 -0.059,-6.0929 -285.67,-152.8012 -297.472,-152.8012 -3.9755,0 -19.1693,17.3537 -34.9662,39.936 -34.1093,48.7615 -119.3598,134.8933 -166.1842,167.9019 -96.1201,67.7595 -196.2639,109.2271 -313.0117,129.6117 -47.7051,8.3295 -177.7479,7.0455 -228.8223,-2.2592 -44.3773,-8.0846 -107.9351,-24.1012 -107.9351,-27.1996 0,-1.0539 11.1562,-15.898 24.7914,-32.9869 121.436,-152.1932 200.8395,-349.2175 221.5544,-549.7423 7.0797,-68.5344 2.919,-198.7443 -8.5419,-267.3315 -30.9325,-185.1094 -101.4003,-346.7243 -213.1731,-488.9036 -11.7507,-14.9476 -20.2948,-28.2479 -18.9862,-29.5562 4.8722,-4.8724 73.4692,-22.8848 107.7779,-28.3008 54.85,-8.6586 186.0421,-7.3451 238.4458,2.3873 98.6112,18.314 210.5554,65.3974 291.4247,122.5725 53.5781,37.8798 137.2722,121.7724 172.8144,173.224 15.3695,22.2493 30.859,44.0248 34.4209,48.39 6.145,7.5308 14.092,3.9824 155.3483,-69.3618 81.88,-42.5143 149.4245,-78.9539 150.0989,-80.977 0.6743,-2.023 -14.0083,-26.8994 -32.6284,-55.2808 -254.3705,-387.7261 -706.7497,-566.90865 -1153.5689,-456.9161 -62.1788,15.3064 -142.6381,45.4981 -206.4893,77.4834 l -53.46,26.78 -65.3878,-31.5334 c -130.0614,-62.7225 -238.0405,-91.5114 -383.4409,-102.2312 -214.44364,-15.8101 -440.98875,40.1119 -625.29931,154.3533 -134.59502,83.4262 -264.31513,212.2315 -347.25104,344.8021 -13.22507,21.1399 -24.04556,39.9708 -24.04556,41.8465 0,1.8756 31.571,19.8326 70.15779,39.9042 38.58678,20.0716 106.10016,55.1857 150.02973,78.0314 65.53394,34.0809 80.64696,40.4323 84.18935,35.3809 2.37457,-3.3861 16.9458,-24.2033 32.38051,-46.2605 114.87524,-164.1637 292.11087,-274.0577 490.02517,-303.8374 49.89786,-7.508 129.72546,-8.4047 185.64826,-2.0855 38.8213,4.3867 122.5669,22.6468 134.5052,29.3279 5.0396,2.8203 1.5184,9.6698 -17.4038,33.853 -83.6325,106.886 -154.4561,249.0834 -188.6952,378.8564 -27.1432,102.8782 -31.6293,140.6479 -31.8353,268.0312 -0.1986,122.744 2.3385,150.3083 22.0115,239.1568 31.8574,143.876 107.6643,301.9636 200.9625,419.0863 l 25.6657,32.2197 -15.5546,5.3851 c -8.5549,2.9619 -40.2559,10.5592 -70.4465,16.8831 -48.6581,10.1921 -64.9436,11.535 -143.3988,11.8245 -99.00844,0.3653 -138.54605,-5.6116 -222.77084,-33.6765 -162.54182,-54.1613 -279.78818,-145.5532 -392.61982,-306.0414 -5.31956,-7.5664 -13.59024,-3.991 -138.74616,59.9792 -73.19914,37.414 -141.27793,72.7501 -151.28618,78.5249 l -18.19682,10.4996 21.77344,35.2975 c 63.34173,102.6849 174.4588,221.2382 281.08923,299.9003 60.29088,44.477 158.00902,97.5888 234.34964,127.3742 76.43537,29.822 191.81743,58.1985 274.37372,67.4784 52.44799,5.8954 208.93369,2.2999 263.14289,-6.0466 z"
     id="path839" />
</svg>
